<svg xmlns="http://www.w3.org/2000/svg" width="900" height="420" viewBox="0 0 900 420">
<style>
text { font-family: Arial, Helvetica, sans-serif; fill: #1a1a1a; }
.title { font-size: 22px; font-weight: 700; }
.label { font-size: 14px; }
.value { font-size: 13px; font-weight: 600; }
.axis { stroke: #444; stroke-width: 1.25; }
.grid { stroke: #bbb; stroke-dasharray: 4 4; stroke-width: 0.8; }
</style>
<rect x="0" y="0" width="900" height="420" fill="#ffffff"/>
<text class="title" x="450.0" y="32" text-anchor="middle">HCC827 Intervention Effect on Malignancy</text>
<line class="axis" x1="515" y1="45" x2="515" y2="375"/>
<line class="grid" x1="190.0" y1="55" x2="190.0" y2="365"/>
<text class="label" x="190.0" y="393" text-anchor="middle">-0.11</text>
<line class="grid" x1="352.5" y1="55" x2="352.5" y2="365"/>
<text class="label" x="352.5" y="393" text-anchor="middle">-0.05</text>
<line class="grid" x1="515.0" y1="55" x2="515.0" y2="365"/>
<text class="label" x="515.0" y="393" text-anchor="middle">0.00</text>
<line class="grid" x1="677.5" y1="55" x2="677.5" y2="365"/>
<text class="label" x="677.5" y="393" text-anchor="middle">0.05</text>
<line class="grid" x1="840.0" y1="55" x2="840.0" y2="365"/>
<text class="label" x="840.0" y="393" text-anchor="middle">0.11</text>
<text class="label" x="160" y="84.52" text-anchor="end">Parental: gefitinib</text>
<rect x="314.2" y="55" width="200.8" height="41" rx="4" fill="#d62728"/>
<text class="value" x="306.2" y="84.52" text-anchor="end">-0.065</text>
<text class="label" x="160" y="137.52" text-anchor="end">Parental: capmatinib</text>
<rect x="503.3" y="108" width="11.7" height="41" rx="4" fill="#d62728"/>
<text class="value" x="495.3" y="137.52" text-anchor="end">-0.004</text>
<text class="label" x="160" y="190.52" text-anchor="end">Parental: gefitinib+capmatinib</text>
<rect x="311.9" y="161" width="203.1" height="41" rx="4" fill="#d62728"/>
<text class="value" x="303.9" y="190.52" text-anchor="end">-0.066</text>
<text class="label" x="160" y="243.52" text-anchor="end">Resistant: gefitinib</text>
<rect x="265.4" y="214" width="249.6" height="41" rx="4" fill="#d62728"/>
<text class="value" x="257.4" y="243.52" text-anchor="end">-0.081</text>
<text class="label" x="160" y="296.52" text-anchor="end">Resistant: capmatinib</text>
<rect x="403.8" y="267" width="111.2" height="41" rx="4" fill="#d62728"/>
<text class="value" x="395.8" y="296.52" text-anchor="end">-0.036</text>
<text class="label" x="160" y="349.52" text-anchor="end">Resistant: gefitinib+capmatinib</text>
<rect x="190.0" y="320" width="325.0" height="41" rx="4" fill="#d62728"/>
<text class="value" x="182.0" y="349.52" text-anchor="end">-0.106</text>
</svg>
