<svg xmlns="http://www.w3.org/2000/svg" width="1240" height="760" viewBox="0 0 1240 760" aria-label="HCC827 Digital Twin: Signaling Architecture">
<rect x="0" y="0" width="1240" height="760" fill="#f6f7f4"/>
<text x="620" y="44" text-anchor="middle" font-family="Arial, Helvetica, sans-serif" font-size="30" font-weight="700" fill="#10212b">HCC827 Digital Twin: Signaling Architecture</text>
<text x="620" y="72" text-anchor="middle" font-family="Arial, Helvetica, sans-serif" font-size="15" fill="#5b6b74">EGFR signaling, MET bypass, survival control, and apoptotic response</text>
<rect x="110" y="170" width="100" height="50" rx="14" fill="#1b6ca8" opacity="0.95"/>
<text x="160" y="201" text-anchor="middle" font-family="Arial, Helvetica, sans-serif" font-size="18" font-weight="700" fill="#ffffff">EGFR</text>
<rect x="110" y="360" width="100" height="50" rx="14" fill="#d1495b" opacity="0.95"/>
<text x="160" y="391" text-anchor="middle" font-family="Arial, Helvetica, sans-serif" font-size="18" font-weight="700" fill="#ffffff">MET</text>
<rect x="300" y="265" width="100" height="50" rx="14" fill="#7a6ff0" opacity="0.95"/>
<text x="350" y="296" text-anchor="middle" font-family="Arial, Helvetica, sans-serif" font-size="18" font-weight="700" fill="#ffffff">ERBB3</text>
<rect x="300" y="120" width="100" height="50" rx="14" fill="#4a6572" opacity="0.95"/>
<text x="350" y="151" text-anchor="middle" font-family="Arial, Helvetica, sans-serif" font-size="18" font-weight="700" fill="#ffffff">GRB2/SOS</text>
<rect x="470" y="120" width="100" height="50" rx="14" fill="#f4a261" opacity="0.95"/>
<text x="520" y="151" text-anchor="middle" font-family="Arial, Helvetica, sans-serif" font-size="18" font-weight="700" fill="#ffffff">RAS</text>
<rect x="620" y="120" width="100" height="50" rx="14" fill="#f4a261" opacity="0.95"/>
<text x="670" y="151" text-anchor="middle" font-family="Arial, Helvetica, sans-serif" font-size="18" font-weight="700" fill="#ffffff">RAF</text>
<rect x="770" y="120" width="100" height="50" rx="14" fill="#f4a261" opacity="0.95"/>
<text x="820" y="151" text-anchor="middle" font-family="Arial, Helvetica, sans-serif" font-size="18" font-weight="700" fill="#ffffff">MEK</text>
<rect x="920" y="120" width="100" height="50" rx="14" fill="#f4a261" opacity="0.95"/>
<text x="970" y="151" text-anchor="middle" font-family="Arial, Helvetica, sans-serif" font-size="18" font-weight="700" fill="#ffffff">ERK</text>
<rect x="470" y="305" width="100" height="50" rx="14" fill="#2a9d8f" opacity="0.95"/>
<text x="520" y="336" text-anchor="middle" font-family="Arial, Helvetica, sans-serif" font-size="18" font-weight="700" fill="#ffffff">PI3K</text>
<rect x="620" y="305" width="100" height="50" rx="14" fill="#2a9d8f" opacity="0.95"/>
<text x="670" y="336" text-anchor="middle" font-family="Arial, Helvetica, sans-serif" font-size="18" font-weight="700" fill="#ffffff">AKT</text>
<rect x="770" y="305" width="100" height="50" rx="14" fill="#2a9d8f" opacity="0.95"/>
<text x="820" y="336" text-anchor="middle" font-family="Arial, Helvetica, sans-serif" font-size="18" font-weight="700" fill="#ffffff">mTOR</text>
<rect x="920" y="305" width="100" height="50" rx="14" fill="#2a9d8f" opacity="0.95"/>
<text x="970" y="336" text-anchor="middle" font-family="Arial, Helvetica, sans-serif" font-size="18" font-weight="700" fill="#ffffff">BCL2</text>
<rect x="620" y="515" width="100" height="50" rx="14" fill="#264653" opacity="0.95"/>
<text x="670" y="546" text-anchor="middle" font-family="Arial, Helvetica, sans-serif" font-size="18" font-weight="700" fill="#ffffff">p53</text>
<rect x="770" y="515" width="100" height="50" rx="14" fill="#6c5ce7" opacity="0.95"/>
<text x="820" y="546" text-anchor="middle" font-family="Arial, Helvetica, sans-serif" font-size="18" font-weight="700" fill="#ffffff">BAX</text>
<rect x="920" y="515" width="100" height="50" rx="14" fill="#6c5ce7" opacity="0.95"/>
<text x="970" y="546" text-anchor="middle" font-family="Arial, Helvetica, sans-serif" font-size="18" font-weight="700" fill="#ffffff">CASP9</text>
<rect x="1080" y="515" width="100" height="50" rx="14" fill="#6c5ce7" opacity="0.95"/>
<text x="1130" y="546" text-anchor="middle" font-family="Arial, Helvetica, sans-serif" font-size="18" font-weight="700" fill="#ffffff">CASP3</text>
<defs><marker id="arrow-200-170-300-145" markerWidth="10" markerHeight="10" refX="9" refY="3" orient="auto" markerUnits="strokeWidth"><path d="M0,0 L0,6 L9,3 z" fill="#1b6ca8"/></marker></defs><line x1="200" y1="170" x2="300" y2="145" stroke="#1b6ca8" stroke-width="4" marker-end="url(#arrow-200-170-300-145)"/>
<defs><marker id="arrow-200-170-300-290" markerWidth="10" markerHeight="10" refX="9" refY="3" orient="auto" markerUnits="strokeWidth"><path d="M0,0 L0,6 L9,3 z" fill="#1b6ca8"/></marker></defs><line x1="200" y1="170" x2="300" y2="290" stroke="#1b6ca8" stroke-width="4" marker-end="url(#arrow-200-170-300-290)"/>
<defs><marker id="arrow-200-360-300-290" markerWidth="10" markerHeight="10" refX="9" refY="3" orient="auto" markerUnits="strokeWidth"><path d="M0,0 L0,6 L9,3 z" fill="#d1495b"/></marker></defs><line x1="200" y1="360" x2="300" y2="290" stroke="#d1495b" stroke-width="4" marker-end="url(#arrow-200-360-300-290)"/><text x="250.0" y="315.0" text-anchor="middle" font-family="Arial, Helvetica, sans-serif" font-size="13" font-weight="700" fill="#d1495b">bypass</text>
<defs><marker id="arrow-200-360-300-145" markerWidth="10" markerHeight="10" refX="9" refY="3" orient="auto" markerUnits="strokeWidth"><path d="M0,0 L0,6 L9,3 z" fill="#d1495b"/></marker></defs><line x1="200" y1="360" x2="300" y2="145" stroke="#d1495b" stroke-width="4" marker-end="url(#arrow-200-360-300-145)"/>
<defs><marker id="arrow-390-145-470-145" markerWidth="10" markerHeight="10" refX="9" refY="3" orient="auto" markerUnits="strokeWidth"><path d="M0,0 L0,6 L9,3 z" fill="#4a6572"/></marker></defs><line x1="390" y1="145" x2="470" y2="145" stroke="#4a6572" stroke-width="4" marker-end="url(#arrow-390-145-470-145)"/>
<defs><marker id="arrow-560-145-620-145" markerWidth="10" markerHeight="10" refX="9" refY="3" orient="auto" markerUnits="strokeWidth"><path d="M0,0 L0,6 L9,3 z" fill="#f4a261"/></marker></defs><line x1="560" y1="145" x2="620" y2="145" stroke="#f4a261" stroke-width="4" marker-end="url(#arrow-560-145-620-145)"/>
<defs><marker id="arrow-710-145-770-145" markerWidth="10" markerHeight="10" refX="9" refY="3" orient="auto" markerUnits="strokeWidth"><path d="M0,0 L0,6 L9,3 z" fill="#f4a261"/></marker></defs><line x1="710" y1="145" x2="770" y2="145" stroke="#f4a261" stroke-width="4" marker-end="url(#arrow-710-145-770-145)"/>
<defs><marker id="arrow-860-145-920-145" markerWidth="10" markerHeight="10" refX="9" refY="3" orient="auto" markerUnits="strokeWidth"><path d="M0,0 L0,6 L9,3 z" fill="#f4a261"/></marker></defs><line x1="860" y1="145" x2="920" y2="145" stroke="#f4a261" stroke-width="4" marker-end="url(#arrow-860-145-920-145)"/>
<defs><marker id="arrow-390-290-470-330" markerWidth="10" markerHeight="10" refX="9" refY="3" orient="auto" markerUnits="strokeWidth"><path d="M0,0 L0,6 L9,3 z" fill="#7a6ff0"/></marker></defs><line x1="390" y1="290" x2="470" y2="330" stroke="#7a6ff0" stroke-width="4" marker-end="url(#arrow-390-290-470-330)"/>
<defs><marker id="arrow-560-330-620-330" markerWidth="10" markerHeight="10" refX="9" refY="3" orient="auto" markerUnits="strokeWidth"><path d="M0,0 L0,6 L9,3 z" fill="#2a9d8f"/></marker></defs><line x1="560" y1="330" x2="620" y2="330" stroke="#2a9d8f" stroke-width="4" marker-end="url(#arrow-560-330-620-330)"/>
<defs><marker id="arrow-710-330-770-330" markerWidth="10" markerHeight="10" refX="9" refY="3" orient="auto" markerUnits="strokeWidth"><path d="M0,0 L0,6 L9,3 z" fill="#2a9d8f"/></marker></defs><line x1="710" y1="330" x2="770" y2="330" stroke="#2a9d8f" stroke-width="4" marker-end="url(#arrow-710-330-770-330)"/>
<defs><marker id="arrow-860-330-920-330" markerWidth="10" markerHeight="10" refX="9" refY="3" orient="auto" markerUnits="strokeWidth"><path d="M0,0 L0,6 L9,3 z" fill="#2a9d8f"/></marker></defs><line x1="860" y1="330" x2="920" y2="330" stroke="#2a9d8f" stroke-width="4" marker-end="url(#arrow-860-330-920-330)"/>
<defs><marker id="arrow-660-355-660-490" markerWidth="10" markerHeight="10" refX="9" refY="3" orient="auto" markerUnits="strokeWidth"><path d="M0,0 L0,6 L9,3 z" fill="#264653"/></marker></defs><line x1="660" y1="355" x2="660" y2="490" stroke="#264653" stroke-width="4" marker-end="url(#arrow-660-355-660-490)"/><text x="660.0" y="412.5" text-anchor="middle" font-family="Arial, Helvetica, sans-serif" font-size="13" font-weight="700" fill="#264653">MDM2 / p53 axis</text>
<defs><marker id="arrow-710-540-770-540" markerWidth="10" markerHeight="10" refX="9" refY="3" orient="auto" markerUnits="strokeWidth"><path d="M0,0 L0,6 L9,3 z" fill="#6c5ce7"/></marker></defs><line x1="710" y1="540" x2="770" y2="540" stroke="#6c5ce7" stroke-width="4" marker-end="url(#arrow-710-540-770-540)"/>
<defs><marker id="arrow-860-540-920-540" markerWidth="10" markerHeight="10" refX="9" refY="3" orient="auto" markerUnits="strokeWidth"><path d="M0,0 L0,6 L9,3 z" fill="#6c5ce7"/></marker></defs><line x1="860" y1="540" x2="920" y2="540" stroke="#6c5ce7" stroke-width="4" marker-end="url(#arrow-860-540-920-540)"/>
<defs><marker id="arrow-1010-540-1080-540" markerWidth="10" markerHeight="10" refX="9" refY="3" orient="auto" markerUnits="strokeWidth"><path d="M0,0 L0,6 L9,3 z" fill="#6c5ce7"/></marker></defs><line x1="1010" y1="540" x2="1080" y2="540" stroke="#6c5ce7" stroke-width="4" marker-end="url(#arrow-1010-540-1080-540)"/>
<rect x="980" y="200" width="210" height="88" rx="18" fill="#ffffff" stroke="#f4a261" stroke-width="2.2"/>
<text x="1000" y="228" font-family="Arial, Helvetica, sans-serif" font-size="18" font-weight="700" fill="#f4a261">Proliferation arm</text>
<text x="1000" y="258" font-family="Arial, Helvetica, sans-serif" font-size="14" fill="#10212b">EGFR -> RAS/RAF/MEK/ERK drives growth output</text>
<rect x="980" y="360" width="210" height="88" rx="18" fill="#ffffff" stroke="#2a9d8f" stroke-width="2.2"/>
<text x="1000" y="388" font-family="Arial, Helvetica, sans-serif" font-size="18" font-weight="700" fill="#2a9d8f">Survival arm</text>
<text x="1000" y="418" font-family="Arial, Helvetica, sans-serif" font-size="14" fill="#10212b">EGFR or MET/ERBB3 -> PI3K/AKT/mTOR sustains survival</text>
<rect x="980" y="600" width="210" height="88" rx="18" fill="#ffffff" stroke="#6c5ce7" stroke-width="2.2"/>
<text x="1000" y="628" font-family="Arial, Helvetica, sans-serif" font-size="18" font-weight="700" fill="#6c5ce7">Apoptosis arm</text>
<text x="1000" y="658" font-family="Arial, Helvetica, sans-serif" font-size="14" fill="#10212b">p53 -> BAX -> caspases marks phenotypic reversal</text>
</svg>
